Right_states
version=1
nRows=7
nColumns=41
inDegrees=yes

# SIMM Motion File Header:
name Right_states
datacolumns 41
datarows 7
otherdata 1
range 2.63291709 2.63444748
endheader
time	/jointset/sternoclavicular/sternoclavicular_r2/value	/jointset/sternoclavicular/sternoclavicular_r2/speed	/jointset/sternoclavicular/sternoclavicular_r3/value	/jointset/sternoclavicular/sternoclavicular_r3/speed	/jointset/unrotscap/unrotscap_r3/value	/jointset/unrotscap/unrotscap_r3/speed	/jointset/unrotscap/unrotscap_r2/value	/jointset/unrotscap/unrotscap_r2/speed	/jointset/acromioclavicular/acromioclavicular_r2/value	/jointset/acromioclavicular/acromioclavicular_r2/speed	/jointset/acromioclavicular/acromioclavicular_r3/value	/jointset/acromioclavicular/acromioclavicular_r3/speed	/jointset/acromioclavicular/acromioclavicular_r1/value	/jointset/acromioclavicular/acromioclavicular_r1/speed	/jointset/unrothum/unrothum_r1/value	/jointset/unrothum/unrothum_r1/speed	/jointset/unrothum/unrothum_r3/value	/jointset/unrothum/unrothum_r3/speed	/jointset/unrothum/unrothum_r2/value	/jointset/unrothum/unrothum_r2/speed	/jointset/shoulder0/elv_angle/value	/jointset/shoulder0/elv_angle/speed	/jointset/shoulder1/shoulder_elv/value	/jointset/shoulder1/shoulder_elv/speed	/jointset/shoulder1/shoulder1_r2/value	/jointset/shoulder1/shoulder1_r2/speed	/jointset/shoulder2/shoulder_rot/value	/jointset/shoulder2/shoulder_rot/speed	/jointset/elbow/elbow_flexion/value	/jointset/elbow/elbow_flexion/speed	/jointset/radioulnar/pro_sup/value	/jointset/radioulnar/pro_sup/speed	/jointset/radiocarpal/deviation/value	/jointset/radiocarpal/deviation/speed	/jointset/radiocarpal/flexion/value	/jointset/radiocarpal/flexion/speed	/jointset/wrist_hand/wrist_hand_r1/value	/jointset/wrist_hand/wrist_hand_r1/speed	/jointset/wrist_hand/wrist_hand_r3/value	/jointset/wrist_hand/wrist_hand_r3/speed
      2.63291709	      0.54874548	     13.56121551	     -0.23242269	     -5.74389083	      0.23242269	      5.74389083	     -0.54874548	    -13.56121551	      0.11110980	      2.74587028	     -0.89795030	    -22.19115776	     -0.40362248	     -9.97477269	      0.40362248	      9.97477269	      0.89795030	     22.19115776	     -0.11110980	     -2.74587028	     20.93010796	    121.22589025	     -2.26753822	    -56.03795500	    -20.93010796	   -121.22589025	  -1739.74318281	   -534.60717320	     68.83731253	  -1049.41774538	  -4042.24498589	  -6367.53003762	      6.40468724	    474.45924191	    -21.49497765	    288.02615391	    244.83319743	  17475.81659214	   -615.78574999	   8251.34150421
      2.63316061	      0.55204601	     13.54665300	     -0.23382063	     -5.73772284	      0.23382063	      5.73772284	     -0.55204601	    -13.54665300	      0.11177809	      2.74292167	     -0.90335118	    -22.16732811	     -0.40605014	     -9.96406143	      0.40605014	      9.96406143	      0.90335118	     22.16732811	     -0.11177809	     -2.74292167	     20.95963043	    121.24163598	     -2.28117673	    -55.97777949	    -20.95963043	   -121.24163598	  -1739.87537051	   -550.94514482	     68.58682072	  -1007.54946769	  -4043.66267882	  -5299.39693647	      6.52044984	    473.90632686	    -21.42552376	    281.38165085	    249.09709573	  17455.45100326	   -613.79604271	   8060.99051317
      2.63340413	      0.55534386	     13.54058600	     -0.23521745	     -5.73515315	      0.23521745	      5.73515315	     -0.55534386	    -13.54058600	      0.11244584	      2.74169323	     -0.90874769	    -22.15740027	     -0.40847583	     -9.95959893	      0.40847583	      9.95959893	      0.90874769	     22.15740027	     -0.11244584	     -2.74169323	     20.98915674	    121.25734206	     -2.29480421	    -55.95270932	    -20.98915674	   -121.25734206	  -1740.01149580	   -567.08205253	     68.34675433	   -963.81124247	  -4044.84188349	  -4424.26909985	      6.63445921	    460.70249065	    -21.35837109	    269.41367495	    253.29641707	  16969.11245270	   -611.87226035	   7718.13325879
      2.63364764	      0.55864187	     13.54843319	     -0.23661433	     -5.73847685	      0.23661433	      5.73847685	     -0.55864187	    -13.54843319	      0.11311362	      2.74328212	     -0.91414445	    -22.17024116	     -0.41090164	     -9.96537082	      0.41090164	      9.96537082	      0.91414445	     22.17024116	     -0.11311362	     -2.74328212	     21.01868683	    121.27269410	     -2.30843232	    -55.98513563	    -21.01868683	   -121.27269410	  -1740.15160120	   -583.73219027	     68.11754637	   -918.42304343	  -4045.83783100	  -3797.47038013	      6.74418404	    439.55697319	    -21.29457638	    254.15607053	    257.33792549	  16190.25696361	   -610.04467661	   7281.03508952
      2.63389116	      0.56194364	     13.57137023	     -0.23801280	     -5.74819190	      0.23801280	      5.74819190	     -0.56194364	    -13.57137023	      0.11378216	      2.74792641	     -0.91954737	    -22.20777464	     -0.41333021	     -9.98224186	      0.41333021	      9.98224186	      0.91954737	     22.20777464	     -0.11378216	     -2.74792641	     21.04822062	    121.28765964	     -2.32207596	    -56.07991659	    -21.04822062	   -121.28765964	  -1740.29587227	   -601.34839015	     67.89955270	   -871.78620694	  -4046.71096109	  -3410.60393281	      6.84827107	    415.04682956	    -21.23469974	    237.49562435	    261.17177598	  15287.47177805	   -608.32933716	   6803.74846414
      2.63413468	      0.56525271	     13.60810303	     -0.23941437	     -5.76375018	      0.23941437	      5.76375018	     -0.56525271	    -13.60810303	      0.11445218	      2.75536405	     -0.92496223	    -22.26788307	     -0.41576416	    -10.00926019	      0.41576416	     10.00926019	      0.92496223	     22.26788307	     -0.11445218	     -2.75536405	     21.07775801	    121.30230314	     -2.33574978	    -56.23170468	    -21.07775801	   -121.30230314	  -1740.44457523	   -620.15459333	     67.69301780	   -824.39904159	  -4047.51514545	  -3223.56153945	      6.94630399	    390.20161242	    -21.17892257	    220.62823387	    264.78263504	  14372.34478832	   -606.73143907	   6320.53332101
      2.63444748	      0.56951889	     13.67219714	     -0.24122132	     -5.79089741	      0.24122132	      5.79089741	     -0.56951889	    -13.67219714	      0.11531599	      2.76834181	     -0.93194327	    -22.37276470	     -0.41890209	    -10.05640376	      0.41890209	     10.05640376	      0.93194327	     22.37276470	     -0.11531599	     -2.76834181	     21.11570414	    121.32071515	     -2.35337857	    -56.49655576	    -21.11570414	   -121.32071515	  -1740.64257476	   -646.18635115	     67.44471304	   -763.25511533	  -4048.51487423	  -3203.63195879	      7.06358442	    360.12248795	    -21.11323237	    199.53041137	    269.10243954	  13264.43663496	   -604.84955348	   5716.12522809
